# xmcd
# 
# Track frame offsets:
#     150
#     13882
#     55356
#     122935
#     193062
#     260112
#     328589
# 
# Disc length: 4559
# 
# Revision: 0
# Processed by: cddbd v1.5.2PL0 Copyright (c) Steve Scherf et al.
# Submitted via: BonkEnc v1.0.15
# 
DISCID=6c11cd07
DTITLE=James Crutchfield - George washington: First in War, First in Peace
DYEAR=2005
DGENRE=Audio Book
TTITLE0=08
TTITLE1=09
TTITLE2=10
TTITLE3=11
TTITLE4=12
TTITLE5=13
TTITLE6=14
EXTD=
EXTT0=
EXTT1=
EXTT2=
EXTT3=
EXTT4=
EXTT5=
EXTT6=
PLAYORDER=
